<svg xmlns="http://www.w3.org/2000/svg" xmlns:xlink="http://www.w3.org/1999/xlink" version="1.1" x="0px" y="0px" viewBox="0 0 500 500" style="enable-background:new 0 0 500 500;" xml:space="preserve">
<g id="BACKGROUND">
	<rect style="fill:#FFFFFF;" width="500" height="500"/>
</g>
<g id="OBJECTS">
	<g>
		<g>
			<g>
				<polygon style="fill:#000000;" points="294.025,196.963 266.206,196.963 268.992,175.732 291.238,175.732     "/>
				<polygon style="fill:#000000;" points="280.115,196.963 266.206,196.963 268.992,175.732 280.115,175.732     "/>
			</g>
			<g>
				<rect x="278.903" y="196.963" style="fill:#bfbaba;" width="2.425" height="23.409"/>
				<rect x="278.903" y="196.963" style="fill:#8c8c8c;" width="1.213" height="23.409"/>
				<rect x="268.303" y="220.372" style="fill:#bfbaba;" width="23.625" height="1.372"/>
				<rect x="268.303" y="220.764" style="fill:#8c8c8c;" width="11.813" height="0.98"/>
			</g>
		</g>
		<g>
			<g>
				
					<ellipse transform="matrix(0.7404 -0.6721 0.6721 0.7404 -31.5884 105.3592)" style="fill:#8298a3;" cx="120.613" cy="93.577" rx="21.766" ry="21.766"/>
				
					<ellipse transform="matrix(0.7404 -0.6721 0.6721 0.7404 -30.9809 105.1246)" style="fill:#000000;" cx="120.613" cy="92.673" rx="21.766" ry="21.766"/>
				<g>
					
						<ellipse transform="matrix(0.2315 -0.9728 0.9728 0.2315 3.419 187.8661)" style="fill:#474747;" cx="120.613" cy="91.769" rx="17.247" ry="17.247"/>
				</g>
				<g>
					
						<ellipse transform="matrix(0.9255 -0.3787 0.3787 0.9255 -26.1114 52.5768)" style="fill:#FFFFFF;" cx="120.613" cy="92.673" rx="17.247" ry="17.247"/>
				</g>
				<rect x="110.246" y="119.43" style="fill:#5c5142;" width="20.735" height="4.918"/>
				<g>
					
						<line style="fill:none;stroke:#000000;stroke-width:3;stroke-linecap:round;stroke-miterlimit:10;" x1="120.613" y1="92.673" x2="111.522" y2="97.922"/>
					
						<line style="fill:none;stroke:#000000;stroke-width:3;stroke-linecap:round;stroke-miterlimit:10;" x1="120.613" y1="92.673" x2="120.613" y2="79.56"/>
				</g>
			</g>
			<g>
				
					<ellipse transform="matrix(0.2319 -0.9727 0.9727 0.2319 51.3062 252.1296)" style="fill:#8298a3;" cx="185.307" cy="93.577" rx="21.766" ry="21.766"/>
				
					<ellipse transform="matrix(0.2319 -0.9727 0.9727 0.2319 52.1854 251.4354)" style="fill:#000000;" cx="185.307" cy="92.673" rx="21.766" ry="21.766"/>
				<g>
					
						<ellipse transform="matrix(1 -0.0084 0.0084 1 -0.7672 1.5659)" style="fill:#474747;" cx="185.307" cy="91.769" rx="17.247" ry="17.247"/>
				</g>
				<g>
					<circle style="fill:#FFFFFF;" cx="185.307" cy="92.673" r="17.247"/>
				</g>
				<rect x="174.939" y="119.43" style="fill:#5c5142;" width="20.735" height="4.918"/>
				<g>
					
						<line style="fill:none;stroke:#000000;stroke-width:3;stroke-linecap:round;stroke-miterlimit:10;" x1="185.307" y1="92.673" x2="174.809" y2="92.673"/>
					
						<line style="fill:none;stroke:#000000;stroke-width:3;stroke-linecap:round;stroke-miterlimit:10;" x1="185.307" y1="92.673" x2="185.307" y2="79.56"/>
				</g>
			</g>
			<g>
				
					<ellipse transform="matrix(0.1552 -0.9879 0.9879 0.1552 118.7599 326.0259)" style="fill:#8298a3;" cx="250" cy="93.577" rx="21.766" ry="21.766"/>
				
					<ellipse transform="matrix(0.1552 -0.9879 0.9879 0.1552 119.6528 325.2624)" style="fill:#000000;" cx="250" cy="92.673" rx="21.766" ry="21.766"/>
				<g>
					<path style="fill:#474747;" d="M250,109.017c-9.51,0-17.247-7.737-17.247-17.247S240.49,74.522,250,74.522       c9.51,0,17.247,7.737,17.247,17.247S259.51,109.017,250,109.017z"/>
				</g>
				<g>
					<path style="fill:#FFFFFF;" d="M250.267,109.92c-9.51,0-17.247-7.737-17.247-17.247s7.737-17.247,17.247-17.247       c9.51,0,17.247,7.737,17.247,17.247S259.777,109.92,250.267,109.92z"/>
				</g>
				<rect x="239.632" y="119.43" style="fill:#5c5142;" width="20.735" height="4.918"/>
				<g>
					
						<line style="fill:none;stroke:#000000;stroke-width:3;stroke-linecap:round;stroke-miterlimit:10;" x1="250" y1="92.673" x2="259.091" y2="87.424"/>
					
						<line style="fill:none;stroke:#000000;stroke-width:3;stroke-linecap:round;stroke-miterlimit:10;" x1="250" y1="92.673" x2="250" y2="79.56"/>
				</g>
			</g>
			<g>
				
					<ellipse transform="matrix(0.7071 -0.7071 0.7071 0.7071 26.0029 249.9298)" style="fill:#8298a3;" cx="314.693" cy="93.577" rx="21.766" ry="21.766"/>
				
					<ellipse transform="matrix(0.7071 -0.7071 0.7071 0.7071 26.6419 249.6651)" style="fill:#000000;" cx="314.693" cy="92.673" rx="21.766" ry="21.766"/>
				<g>
					<circle style="fill:#474747;" cx="314.693" cy="91.769" r="17.247"/>
				</g>
				<g>
					<circle style="fill:#FFFFFF;" cx="314.693" cy="92.673" r="17.247"/>
				</g>
				<rect x="304.326" y="119.43" style="fill:#5c5142;" width="20.735" height="4.918"/>
				<g>
					
						<line style="fill:none;stroke:#000000;stroke-width:3;stroke-linecap:round;stroke-miterlimit:10;" x1="314.693" y1="92.673" x2="304.196" y2="92.673"/>
					
						<line style="fill:none;stroke:#000000;stroke-width:3;stroke-linecap:round;stroke-miterlimit:10;" x1="314.693" y1="92.673" x2="314.693" y2="79.56"/>
				</g>
			</g>
			<g>
				
					<ellipse transform="matrix(0.2319 -0.9727 0.9727 0.2319 200.3769 440.9186)" style="fill:#8298a3;" cx="379.387" cy="93.577" rx="21.766" ry="21.766"/>
				
					<ellipse transform="matrix(0.2319 -0.9727 0.9727 0.2319 201.2561 440.2244)" style="fill:#000000;" cx="379.387" cy="92.673" rx="21.766" ry="21.766"/>
				<g>
					
						<ellipse transform="matrix(0.0312 -0.9995 0.9995 0.0312 275.8365 468.1111)" style="fill:#474747;" cx="379.387" cy="91.769" rx="17.247" ry="17.247"/>
				</g>
				<g>
					
						<ellipse transform="matrix(0.0263 -0.9997 0.9997 0.0263 276.7814 469.4948)" style="fill:#FFFFFF;" cx="379.387" cy="92.673" rx="17.247" ry="17.247"/>
				</g>
				<rect x="369.019" y="119.43" style="fill:#5c5142;" width="20.735" height="4.918"/>
				<g>
					
						<line style="fill:none;stroke:#000000;stroke-width:3;stroke-linecap:round;stroke-miterlimit:10;" x1="379.387" y1="92.673" x2="377.151" y2="82.416"/>
					
						<line style="fill:none;stroke:#000000;stroke-width:3;stroke-linecap:round;stroke-miterlimit:10;" x1="379.387" y1="92.673" x2="379.387" y2="79.56"/>
				</g>
			</g>
		</g>
		<g>
			<path style="fill:#292929;" d="M218.466,140.223c5.938,3.051,6.836,11.151,4.705,15.213c1.939,1.013,0.002,3.653-0.318,4.272     c-1.521,2.944,1.397,3.377,2.648,4.277c1.584,1.139,1.694,3.566,0.219,4.816c1.976,0.986,2.448,3.568,1.351,5.341     c-2.258,3.652-9.883,4.498-14.676,0.35c-9.22-7.979,3.779-18.423,3.465-28.173c-0.212-6.583-6.383-4.93-5.099-6.093     C211.054,139.961,214.848,138.364,218.466,140.223z"/>
			<g>
				<path style="fill:#474747;" d="M226.896,177.618c2.43,1.008,4.745,7.301,5.764,18.571c1.298,14.348,1.531,26.688,1.531,26.688      l16.105,33.191h-12.485c0,0-14.257-25.593-15.997-29.125c-2.353-4.779-3.536-19.526-3.35-31.407      C218.655,183.35,223.086,176.036,226.896,177.618z"/>
				<path style="fill:#000000;" d="M235.604,225.789h-1.189c-1.527,0-0.745-7.923-1.929-23.887      c-0.241-3.253-3.754-8.775-4.659-14.898l-8.528,10.86c-0.248,12.049,0.118,24.209,2.516,29.079      c0.845,1.716,6.799,9.836,9.796,16.117h12.373L235.604,225.789z"/>
				<path style="fill:#474747;" d="M185.824,175.853c7.624-4.22,32.611-2.094,41.071,1.765c0,0-0.668,6.943,4.44,22.818      c2.643,10.713-8.282,14.466-8.282,31.068c0,0-15.531,5.066-33.374-0.156c0,0-2.059-14.998-5.768-26.039      C178.132,188.101,185.824,175.853,185.824,175.853z"/>
				<path style="fill:#000000;" d="M192.232,191.066h-11.319c0.321,4.026,1.177,8.82,2.999,14.243      c3.709,11.041,5.768,26.039,5.768,26.039c17.843,5.222,33.374,0.156,33.374,0.156c0-1.88,0.13-3.543,0.348-5.049      c-4.159,0-15.08,0-20.221,0C196.757,226.454,193.788,208.155,192.232,191.066z"/>
				<path style="fill:#474747;" d="M185.824,175.853c3.719-1.57,8.13,12.512,7.406,22.499c-4.43,14.487-4.849,24.91-4.849,24.91      l12.984,33.471h-8.973c0,0-17.062-25.518-17.062-33.628C175.332,205.348,179.619,177.464,185.824,175.853z"/>
				<path style="fill:#E0F0E0;" d="M196.083,174.361c-3.901,0.453,13.037,15.034,18.222,50.123c0,0,2.918-8.539,4.919-20.625      c1.149-9.59-0.579-26.827-2.957-29.387C209.189,173.836,202.771,173.733,196.083,174.361z"/>
			</g>
			<g>
				<g>
					<path style="fill:#F5BCAA;" d="M201.411,161.247c0,0-1.227,13.487-1.227,15.062c0,2.116,3.288,3.962,6.699,3.962       c3.411,0,6.699-1.846,6.699-3.962c0-1.574,1.227-15.062,1.227-15.062H201.411z"/>
				</g>
				<path style="fill:#e8c1b4;" d="M201.411,161.247c0,0-1.227,13.487-1.227,15.062c0,1.39,1.419,2.664,3.36,3.374l0,0      c0.738-8.577,5.722-8.478,10.401-8.478l0.864-9.958H201.411z"/>
			</g>
			<g>
				<path style="fill:#B2D5E5;" d="M193.954,174.691l5.457-3.66h0.949l-0.036,0.498c0,0,1.654,7.134,10.818,7.836l-2.548,10.484      C208.593,189.85,195.717,184.911,193.954,174.691z"/>
				<path style="fill:#E0F0E0;" d="M193.954,174.691l5.457-3.66h0.949l-0.036,0.498c0,0,1.859,7.085,10.818,7.836l-2.891,8.334      C208.25,187.699,195.43,183.46,193.954,174.691z"/>
				<path style="fill:#B2D5E5;" d="M211.141,179.365l0.27,1.34l4.653,8.691c0,0,5.843-5.806,3.216-14.604l-4.85-1.298l-0.675-0.092      l-0.052,0.745C213.703,174.145,213.866,178.669,211.141,179.365z"/>
				<path style="fill:#E0F0E0;" d="M211.126,179.365l0.347,0.855l4.895,7.025c0,0,6.385-5.049,2.897-12.454l-4.835-1.298      l-0.675-0.092l-0.052,0.745C213.703,174.145,213.848,178.197,211.126,179.365z"/>
			</g>
			<rect x="220.948" y="194.452" style="fill:#5c5142;" width="6.7" height="1.749"/>
			<g>
				<g>
					<g>
						<path style="fill:#F5BCAA;" d="M221.473,151.816c0,6.362-5.158,11.52-11.52,11.52c-6.362,0-11.52-5.158-11.52-11.52        c0-7.39,5.388-12.255,13.72-11.52C218.49,140.855,221.473,145.052,221.473,151.816z"/>
						<path style="fill:#e8c1b4;" d="M221.466,152.079h-18.223c-2.412,0.11-4.512,2.35-4.067,3.812        c1.646,4.351,5.849,7.446,10.777,7.446C216.227,163.336,221.326,158.319,221.466,152.079z"/>
					</g>
					<g>
						<path style="fill:#F5BCAA;" d="M221.594,151.299c0.276-5.657-2.75-9.993-8.388-9.993c-5.638,0-10.821,4.138-10.273,10.02        c0.075,0.807,0.364,3.946,0.46,4.785c1.026,8.998,7.96,12.267,11.538,11.757c4.893-0.698,6.535-5.188,6.419-11.76        C221.335,155.263,221.555,152.109,221.594,151.299z"/>
						<path style="fill:#F5BCAA;" d="M203.243,158.305c-1.583-0.007-2.888-1.406-2.881-3.126c0.008-1.719,1.388-3.201,3.132-3.101        L203.243,158.305z"/>
					</g>
					<g>
						<path style="fill:#403935;" d="M211.5,154.092c0,0.408-0.331,0.74-0.74,0.74s-0.74-0.331-0.74-0.74s0.331-0.74,0.74-0.74        S211.5,153.684,211.5,154.092z M218.466,154.092c0,0.408,0.331,0.74,0.74,0.74s0.74-0.331,0.74-0.74s-0.331-0.74-0.74-0.74        S218.466,153.684,218.466,154.092z"/>
						<path style="fill:none;stroke:#403935;stroke-width:0.5;stroke-linecap:round;stroke-miterlimit:10;" d="M217.997,158.714        c-0.552,0.98-1.103,1.306-3.028,1.306c-1.925,0-2.98-0.327-3.531-1.306"/>
						<path style="fill:#403935;" d="M206.972,152.548c0.674-0.56,1.828-1.138,2.465-1.306c0.505-0.134,1.753-0.355,2.759,0.415        l-0.022,0.072c-0.663-0.051-1.617-0.12-2.691,0.047c-0.834,0.13-1.949,0.539-2.46,0.828L206.972,152.548z M221.572,151.699        c-0.559-0.39-1.418-0.767-2.027-0.853c-0.445-0.063-1.515-0.232-2.304,0.605l0.025,0.07c0.558-0.097,1.361-0.232,2.284-0.139        c0.717,0.072,1.532,0.333,2.006,0.578L221.572,151.699z"/>
						<path style="fill:#e8c1b4;" d="M213.785,156.908v0.05h2.18c0.304,0,0.538-0.258,0.478-0.558        c-0.042-0.209-1.224-3.143-1.224-3.143l-0.047,0.018c0.271,1.765,0.787,3.243,0.787,3.243S214.707,156.619,213.785,156.908z"/>
					</g>
				</g>
				<path style="fill:#E0F0E0;" d="M202.933,151.326c3.102,3.863,6.549,4.771,7.828,4.814c2.53,0.085,3.621-1.193,5.085-1.308      c1.008-0.079,3.359,1.924,5.52,0.518c0,0,1.175,12.569-7.299,12.569c-8.474,0-11.174-9.641-11.174-9.641l0.349,0.027      c0,0,1.707,3.378,3.729,4.641c2.023,1.262-1.016-7.281-1.016-7.281l-3.402-3.586L202.933,151.326z"/>
			</g>
			<path style="fill:#292929;" d="M222.44,151.106c0.063-7.564-4.93-10.703-9.524-11.469c-4.501-4.676-12.837-2.685-14.924,2.892     c-1.333,3.562-0.666,7.486-3.677,10.171c-1.463,1.305-2.288,1.074-3.245,1.683c-1.63,1.037-1.349,3.922-0.045,5.025     c-4.203,0.214-9.005,4.484-8.373,10.51c0.3,2.865,2.423,5.874,6.048,5.326c5.254-1.019,7.183,2.411,10.715,3.173     c3.428,0.739,6.517-1.596,5.365-3.901c6.613-1.407,6.557-11.653,0.274-12.329c3.591-5.229-1.192-6.832,2.102-11.4     c3.73,0,8.037-0.89,9.999-2.925C219.139,151.099,222.44,151.106,222.44,151.106z"/>
		</g>
		<g>
			<g>
				<g>
					<rect x="124.426" y="221.745" style="fill:#bfbaba;" width="110.458" height="13.118"/>
					<rect x="178.094" y="221.745" style="fill:#abb3a5;" width="155.041" height="13.118"/>
				</g>
				<polygon style="fill:#bfbaba;" points="301.306,438.989 159.949,438.989 159.921,234.863 310.702,234.863     "/>
				<polygon style="fill:#8c8c8c;" points="146.369,438.989 127.529,438.989 118.134,261.444 146.369,261.444     "/>
				<rect x="132.818" y="234.863" style="fill:#8c8c8c;" width="27.104" height="204.126"/>
			</g>
			<g>
				<polygon style="opacity:0.1;fill:#8298a3;" points="308.527,221.745 159.949,221.745 159.949,116.702 313.528,116.702     "/>
				<polygon style="fill:#FFFFFF;" points="246.618,221.745 280.11,119.23 265.273,119.23 231.781,221.745     "/>
				<polygon style="fill:#FFFFFF;" points="257.837,221.745 291.328,119.23 286.492,119.23 253,221.745     "/>
				<rect x="156.949" y="116.702" style="opacity:0.47;fill:#8298a3;" width="3" height="105.043"/>
			</g>
			<g>
				<g>
					<rect x="346.847" y="434.926" style="fill:#000000;" width="36.232" height="4.063"/>
					<rect x="361.84" y="259.839" style="fill:#000000;" width="6.247" height="175.086"/>
					<circle style="fill:#000000;" cx="364.963" cy="255.123" r="5.935"/>
				</g>
				<rect x="212.396" y="264.816" style="fill:#474747;" width="152.568" height="6.364"/>
				<g>
					<rect x="194.28" y="434.926" style="fill:#000000;" width="36.232" height="4.063"/>
					<rect x="209.272" y="259.839" style="fill:#000000;" width="6.247" height="175.086"/>
					<circle style="fill:#000000;" cx="212.396" cy="255.123" r="5.935"/>
				</g>
			</g>
		</g>
		<g>
			<g>
				<path style="fill:#8298a3;" d="M400.34,181.023c10.412,1.567,10.895,44.542,10.812,54.994      c-0.08,10.1-14.713,31.611-14.713,31.611l-5.401-5.108L400.34,181.023z"/>
				<path style="fill:#000000;" d="M391.039,262.519l5.401,5.108c0,0,4.743-6.975,8.843-14.845c0-12.579,0-39.829,0-47.501      l-7.641-0.615L391.039,262.519z"/>
			</g>
			<g>
				<path style="fill:#000000;" d="M369.928,233.506c-0.035-0.5-0.076-1.007-0.132-1.532      C369.838,232.484,369.884,232.995,369.928,233.506z"/>
				<path style="fill:#000000;" d="M410.742,352.052c0,0-1.129-63.363,0-70.346c1.129-6.983,4.088-11.582-1.374-23.789      c-2.965-6.627-9.696-10.602-10.514-26.283l-14.661,0.064c0,0-2.661,70.214-6.549,80.924c0,0,8.66,40.313,10.229,44.393      l15.41,56.943h14.8C419.681,373.576,410.742,352.052,410.742,352.052z"/>
				<path style="fill:#3c636e;" d="M391.844,281.416l-10.307-0.616c-1.056,14.518-2.381,27.662-3.892,31.823      c0,0,8.66,40.313,10.229,44.393l3.97,14.671V281.416z"/>
				<path style="fill:#3c636e;" d="M406.91,426.919l-7.627,6.756l-9.788,3.648l-1.621,1.666h34.44c0,0,2.973-4.638-3.376-14.38      L406.91,426.919z"/>
				<path style="fill:#663b36;" d="M418.937,424.608c-0.696-3.753-0.838-6.843-0.854-10.649h-14.8l3.627,12.96      c1.054-0.696,1.117,3.288,1.849,3.785c2.325,1.579,6.649-6.096,10.923-4.905L418.937,424.608z"/>
				<path style="fill:#663b36;" d="M365.464,430.816c0,0-0.878,2.976,3.93,2.976c2.948,0,9.844-6.494,9.844-6.494l0.825-13.339      H363.87L365.464,430.816z"/>
				<path style="fill:#000000;" d="M396.15,249.143c-4.415-12.887-2.801-17.445-2.801-17.445l-22.265,0.276      c0,11.187-7.389,20.868-11.441,32.894c-6.412,19.03-7.306,54.913-4.33,90.304c2.509,29.842,8.559,58.787,8.559,58.787h16.193      c2.451-37.599,3.44-47.913,0-61.165c0,0,11.446-69.826,12.559-71.379C400.571,270.328,400.564,262.03,396.15,249.143z"/>
				<path style="fill:#3c636e;" d="M365.02,426.121l0.444,4.695c-0.167,1.145,2.013,2.015,4.922,0.992      c3.293-1.158,5.075-5.151,9.709-4.427c0,0,3.969,5.877,2.193,11.608h-37.205l0.663-1.866c0,0,9.799-2.496,11.553-3.331      C364.162,430.522,362.864,425.506,365.02,426.121z"/>
			</g>
			<g>
				<g>
					<g>
						<g>
							<path style="fill:#544b4b;" d="M368.422,157.503c0.353,6.594,5.986,11.654,12.58,11.301         c6.594-0.353,11.654-5.986,11.301-12.58c-0.41-7.66-6.265-12.402-14.86-11.179         C370.905,145.976,368.047,150.492,368.422,157.503z"/>
						</g>
						<path style="fill:#544b4b;" d="M368.394,156.964c-0.302-5.871,2.169-10.5,8.012-10.813c5.844-0.313,10.06,3.976,10.706,9.819        c0.092,0.837,0.452,4.096,0.549,4.968c0.721,6.534-4.374,12.979-10.382,12.777c-9.196-0.308-8.279-5.194-8.617-11.759        C368.616,161.079,368.437,157.805,368.394,156.964z"/>
						<path style="fill:#663b36;" d="M368.661,161.955c-0.045-0.876-0.224-4.15-0.267-4.991c-0.091-1.765,0.071-3.416,0.497-4.873        l0,0c2.893-0.463,3.931,2.712,4.255,6.045c0.176-0.663,0.93-1.063,1.582-0.73c0.927,0.473,1.61,1.736,1.533,3.301        c-0.078,1.577-1.136,2.868-2.517,3.122c-0.295,0.054-0.518,0.297-0.538,0.596c-0.197,3.002-0.874,5.832-3.051,6.631        C368.636,168.941,368.855,165.725,368.661,161.955z"/>
					</g>
					<g>
						<g>
							<path style="fill:#663b36;" d="M388.431,164.531c0,0,2.107,15.33,1.973,16.959c-0.181,2.189-3.739,3.818-7.268,3.527         c-3.529-0.291-6.772-2.482-6.592-4.671c0.134-1.629-1.972-16.959-1.972-16.959L388.431,164.531z"/>
						</g>
						<path style="fill:#544b4b;" d="M388.431,164.531c0,0,2.107,15.33,1.973,16.959c-0.119,1.438-1.695,2.634-3.764,3.204h0        c-0.032-8.936-6.667-15.965-11.897-16.397l-0.172-4.91L388.431,164.531z"/>
					</g>
					<path style="fill:#E0F0E0;" d="M373.239,157.207c0,0-2.047,3.457-4.639,3.596c0.001-0.033-0.389-0.284-0.205,3.14       c0.171,3.184,1.047,8.254,3.397,8.935c0.377,0.109,0.953,0.073,0.953,0.073c2.335-1.131,1.978-9.611,1.978-9.611       s-0.263,0.172-0.642,0.403c-0.09,1.828-0.083,4.978-1.236,5.019c-1.884-0.077-1.183-8.305-1.183-8.305l1.486-2.322       L373.239,157.207z"/>
					<path style="fill:#292929;" d="M398.394,156.76c5.782-2.721,1.363-9.773-3.121-7.188c0.859-1.83,1.359-3.848,1.077-5.851       c-0.967-6.87-8.075-7.152-10.866-4.656c-0.687-0.493-1.53-0.785-2.439-0.782c-0.757,0.003-1.459,0.212-2.059,0.566       c-0.551-1.278-0.746-2.376-1.238-3.036c-1.791-2.402-8.47-1.972-6.977,7.871c-0.124-0.816-3.603-1.939-4.507,0.591       c-0.256,0.717-0.031,0.955-1.08,0.808c-4.937-0.693-4.356,8.111,3.347,7.366c-3.768,0.123-4.489,6.179-0.357,7.478       c1.178,0.37,2.564,0.724,1.298,2.657c-2.423,3.701,1.533,8.921,4.53,5.622c-2.247,2.772,1.874,7.078,5.382,5.541       c1.436-0.629,2.253-2.159,3.933-2.396c1.994-0.282,8.412,3.086,12.398-1.115c1.681-1.772,1.673-4.693-0.051-6.702       c1.725-0.252,3.043-1.543,3.079-3.242C400.776,158.794,399.802,157.434,398.394,156.76z"/>
				</g>
				<g>
					<path style="fill:#8298a3;" d="M365.991,181.899c6.802-1.3,15.362-3.301,34.349-0.876c0,0,7.197,13.803,4.237,28.338       c-3.431,16.851-4.033,27.477-4.033,27.477s0.515,6.637,10.678,23.724c-0.062,15.498-21.178,15.498-41.967-2.459       c-3.773-3.259-10.101,7.861-9.613,6.766c3.074-10.763,9.302-21.868,8.911-30.748c-0.185-4.211-0.423-6.211-5.08-15.641       C358.125,207.651,365.164,202.069,365.991,181.899z"/>
					<path style="fill:#000000;" d="M378.351,259.503c-1.434-6.213-2.782-33.408-4.118-54.495l-12.438,1.842       c-0.612,3.874-0.44,7.341,1.677,11.629c4.657,9.43,4.895,11.43,5.08,15.641c0.391,8.88-5.837,19.985-8.911,30.748       c-0.489,1.095,5.84-10.025,9.613-6.766c6.069,5.242,12.161,8.942,17.754,11.185       C386.774,269.17,379.761,265.613,378.351,259.503z"/>
				</g>
			</g>
			<g>
				<g>
					<g>
						<rect x="311.635" y="284.789" style="fill:#292929;" width="3.499" height="53.238"/>
						<rect x="339.786" y="284.789" style="fill:#292929;" width="3.499" height="53.238"/>
					</g>
					<path style="fill:#292929;" d="M340.791,290.788h-26.661c-2.151,0-3.894-1.743-3.894-3.894l0,0       c0-2.151,1.743-3.894,3.894-3.894h26.661c2.151,0,3.894,1.743,3.894,3.894l0,0       C344.685,289.045,342.941,290.788,340.791,290.788z"/>
				</g>
				<g>
					<g>
						<path style="fill:#292929;" d="M311.423,438.989h-4.969c-1.083,0-1.961-0.878-1.961-1.961v-4.771        c0-1.083,0.878-1.962,1.961-1.962h4.969c1.083,0,1.961,0.878,1.961,1.962v4.771        C313.385,438.111,312.507,438.989,311.423,438.989z"/>
						<rect x="304.493" y="425.451" style="fill:#292929;" width="5.701" height="9.688"/>
					</g>
					<g>
						<path style="fill:#292929;" d="M341.989,438.989h4.969c1.083,0,1.961-0.878,1.961-1.961v-4.771        c0-1.083-0.878-1.962-1.961-1.962h-4.969c-1.083,0-1.961,0.878-1.961,1.962v4.771        C340.028,438.111,340.906,438.989,341.989,438.989z"/>
						
							<rect x="343.218" y="425.451" transform="matrix(-1 -1.224647e-16 1.224647e-16 -1 692.1376 860.5906)" style="fill:#292929;" width="5.701" height="9.688"/>
					</g>
				</g>
				<path style="fill:#474747;" d="M347.19,429.296H307.73c-7.67,0-13.888-6.218-13.888-13.887v-78.724      c0-7.67,6.218-13.887,13.888-13.887h39.459c7.67,0,13.888,6.218,13.888,13.887v78.724      C361.077,423.078,354.86,429.296,347.19,429.296z"/>
				<g>
					<g>
						<g>
							<path style="fill:#474747;" d="M294.061,438.989h-4.969c-1.083,0-1.961-0.878-1.961-1.961v-4.771         c0-1.083,0.878-1.962,1.961-1.962h4.969c1.083,0,1.961,0.878,1.961,1.962v4.771         C296.023,438.111,295.144,438.989,294.061,438.989z"/>
							<rect x="287.131" y="425.451" style="fill:#474747;" width="5.701" height="9.688"/>
						</g>
						<g>
							<path style="fill:#474747;" d="M324.627,438.989h4.969c1.083,0,1.961-0.878,1.961-1.961v-4.771         c0-1.083-0.878-1.962-1.961-1.962h-4.969c-1.083,0-1.961,0.878-1.961,1.962v4.771         C322.666,438.111,323.544,438.989,324.627,438.989z"/>
							
								<rect x="325.856" y="425.451" transform="matrix(-1 -1.224647e-16 1.224647e-16 -1 657.4131 860.5906)" style="fill:#474747;" width="5.701" height="9.688"/>
						</g>
					</g>
					<path style="fill:#000000;" d="M329.074,429.296h-39.459c-7.67,0-13.887-6.218-13.887-13.887v-78.724       c0-7.67,6.218-13.887,13.887-13.887h39.459c7.67,0,13.887,6.218,13.887,13.887v78.724       C342.961,423.078,336.744,429.296,329.074,429.296z"/>
					<g>
						<g>
							<path style="fill:#474747;" d="M308.344,416.548L308.344,416.548c-2.232,0-4.041-1.809-4.041-4.041v-72.924         c0-2.232,1.809-4.041,4.041-4.041l0,0c2.232,0,4.041,1.809,4.041,4.041v72.924         C312.385,414.739,310.576,416.548,308.344,416.548z"/>
							<path style="fill:#8298a3;" d="M310.344,416.548L310.344,416.548c-2.232,0-4.041-1.809-4.041-4.041v-72.924         c0-2.232,1.809-4.041,4.041-4.041l0,0c2.232,0,4.041,1.809,4.041,4.041v72.924         C314.385,414.739,312.576,416.548,310.344,416.548z"/>
							<path style="fill:#000000;" d="M309.344,416.548L309.344,416.548c-2.232,0-4.041-1.809-4.041-4.041v-72.924         c0-2.232,1.809-4.041,4.041-4.041l0,0c2.232,0,4.041,1.809,4.041,4.041v72.924         C313.385,414.739,311.576,416.548,309.344,416.548z"/>
						</g>
						<g>
							<path style="fill:#474747;" d="M326.706,416.548L326.706,416.548c-2.232,0-4.041-1.809-4.041-4.041v-72.924         c0-2.232,1.809-4.041,4.041-4.041l0,0c2.232,0,4.041,1.809,4.041,4.041v72.924         C330.747,414.739,328.938,416.548,326.706,416.548z"/>
							<path style="fill:#8298a3;" d="M328.707,416.548L328.707,416.548c-2.232,0-4.041-1.809-4.041-4.041v-72.924         c0-2.232,1.809-4.041,4.041-4.041l0,0c2.232,0,4.041,1.809,4.041,4.041v72.924         C332.747,414.739,330.938,416.548,328.707,416.548z"/>
							<path style="fill:#000000;" d="M327.706,416.548L327.706,416.548c-2.232,0-4.041-1.809-4.041-4.041v-72.924         c0-2.232,1.809-4.041,4.041-4.041l0,0c2.232,0,4.041,1.809,4.041,4.041v72.924         C331.747,414.739,329.938,416.548,327.706,416.548z"/>
						</g>
						<g>
							<path style="fill:#474747;" d="M289.982,416.548L289.982,416.548c-2.232,0-4.041-1.809-4.041-4.041v-72.924         c0-2.232,1.809-4.041,4.041-4.041l0,0c2.232,0,4.041,1.809,4.041,4.041v72.924         C294.022,414.739,292.213,416.548,289.982,416.548z"/>
							<path style="fill:#8298a3;" d="M291.982,416.548L291.982,416.548c-2.232,0-4.041-1.809-4.041-4.041v-72.924         c0-2.232,1.809-4.041,4.041-4.041l0,0c2.232,0,4.041,1.809,4.041,4.041v72.924         C296.023,414.739,294.214,416.548,291.982,416.548z"/>
							<path style="fill:#000000;" d="M290.982,416.548L290.982,416.548c-2.232,0-4.041-1.809-4.041-4.041v-72.924         c0-2.232,1.809-4.041,4.041-4.041l0,0c2.232,0,4.041,1.809,4.041,4.041v72.924         C295.022,414.739,293.213,416.548,290.982,416.548z"/>
						</g>
					</g>
				</g>
			</g>
			<g>
				<path style="fill:#663b36;" d="M337.105,270.125l-3.32,4.716l-5.83,2.882l-5.617,11.45c0,0,5.545,2.271,5.545,1.8      c0-0.471,6.121-7.345,6.121-7.345s6.841,1.68,9.312-5.262l1.712-3.525L337.105,270.125z"/>
				<path style="fill:#8298a3;" d="M365.991,181.899c10.055-2.825,9.953,50.165,6.988,58.568      c-2.211,6.267-22.017,39.351-22.017,39.351s-10.763-3.07-13.857-9.693c-3.095-6.623,13.857-35.262,13.857-35.262      S355.936,184.724,365.991,181.899z"/>
			</g>
		</g>
		<g>
			<path style="fill:#8298a3;" d="M94.979,364.594c0,0-7.966-102.579,8.71-160.103C103.69,204.491,105.196,258.49,94.979,364.594z"/>
			<path style="fill:#3c636e;" d="M91.861,342.015c0,0,19.372-109.266-8.344-158.06c0,0-14.7,42.974,6.489,103.413L91.861,342.015z"/>
			<g>
				<path style="fill:#3c636e;" d="M115.563,227.199c8.175-13.785,19.399-22.709,19.399-22.709s-12.659,52.785-32.788,79.313      C102.174,283.804,97.507,257.645,115.563,227.199z"/>
				<path style="fill:#000000;" d="M92.937,341.945c0.078-0.635-8.883-61.34,22.625-114.746c0,0-15.87,27.852-9.248,65.973      c4.231,24.357-7.794,36.198-7.794,36.198l-3.542,35.224L92.937,341.945z"/>
			</g>
			<path style="fill:#8298a3;" d="M94.979,364.594c0,0-3.264-35.621,20.583-80.79L94.979,364.594z"/>
			<path style="fill:#3c636e;" d="M93.078,344.145c0,0-2.951-61.954-24.213-113.711C68.865,230.434,70.418,287.126,93.078,344.145z"/>
			<path style="fill:#000000;" d="M91.979,364.594c0,0,3.264-35.621-20.583-80.79L91.979,364.594z"/>
			<path style="fill:#8298a3;" d="M114.894,334.05c0,0,12.298,80.313-9.868,104.939h-19.79     C63.07,414.362,75.368,334.05,75.368,334.05H114.894z"/>
		</g>
		
			<line style="fill:none;stroke:#474747;stroke-width:4;stroke-linecap:round;stroke-miterlimit:10;" x1="439.696" y1="438.989" x2="60.304" y2="438.989"/>
		<g>
			<rect x="301.123" y="219.49" style="fill:#abb3a5;" width="18.987" height="0.833"/>
			<g>
				<path style="fill:#756350;" d="M325.025,221.745h-28.817l0,0c0-0.785,0.636-1.421,1.421-1.421h25.975      C324.389,220.323,325.025,220.96,325.025,221.745L325.025,221.745z"/>
				<path style="fill:#abb3a5;" d="M307.265,220.323h-9.636c-0.785,0-1.421,0.636-1.421,1.421h8.57      C304.778,220.44,307.265,220.323,307.265,220.323z"/>
			</g>
			<g>
				<g>
					<rect x="309.969" y="209.1" style="fill:#756350;" width="1.295" height="1.295"/>
					<path style="fill:#5c5142;" d="M311.702,209.637h-2.171c-0.491,0-0.889-0.398-0.889-0.889l0,0c0-0.491,0.398-0.889,0.889-0.889       h2.171c0.491,0,0.889,0.398,0.889,0.889l0,0C312.592,209.239,312.194,209.637,311.702,209.637z"/>
					<path style="fill:#756350;" d="M310.617,207.859h-1.086c-0.491,0-0.889,0.398-0.889,0.889c0,0.491,0.398,0.889,0.889,0.889       h1.086C309.804,209.637,309.898,207.859,310.617,207.859z"/>
				</g>
				<g>
					<g>
						<path style="fill:#5c5142;" d="M322.4,219.906c-0.571-5.645-5.825-9.835-11.784-9.835c-5.959,0-11.213,4.19-11.783,9.835        H322.4z"/>
					</g>
					<path style="fill:#756350;" d="M310.617,210.071c-5.959,0-11.213,4.19-11.783,9.835c0,0,3.331-0.072,7.522,0       C305.874,215.238,307.493,210.071,310.617,210.071z"/>
				</g>
			</g>
		</g>
	</g>
</g>
</svg>